Jefty, owner of a roadhouse in a backwoods town, hires sultry, tough-talking torch singer Lily Stevens against the advice of his manager Pete Morgan. Jefty is smitten with Lily, who in turn exerts her charms on the more resistant Pete. When Pete finally falls for her and she turns down Jefty's marriage proposal, they must face Jefty's murderous jealousy and his twisted plots to "punish" the two.


Ida Lupino                          Lily Stevens
Cornel Wilde                        Pete Morgan
Celeste Holm                        Susie Smith
Richard Widmark                     Jefferson (Jefty) Robbins


   Video #0
      ID : 0
      Format : MPEG-4 Visual
      Format profile : Simple@L3
      Format settings, BVOP : No
      Format settings, QPel : No
      Format settings, GMC : No warppoints
      Format settings, Matrix : Default (H.263)
      Codec ID : XVID
      Codec ID/Hint : XviD
      Duration : 1h 34mn
      Bit rate : 899 Kbps
      Width : 720 pixels
      Height : 480 pixels
      Display aspect ratio : 1.500
      Frame rate : 29.970 fps
      Standard : NTSC
      Resolution : 24 bits
      Colorimetry : 4:2:0
      Scan type : Progressive
      Bits/(Pixel*Frame) : 0.087
      Stream size : 609 MiB (89%)
      Writing library : XviD 1.2.1 (UTC 2008-12-04)
   Audio #1
      ID : 1
      Format : MPEG Audio
      Format version : Version 1
      Format profile : Layer 3
      Codec ID : 55
      Codec ID/Hint : MP3
      Duration : 1h 34mn
      Bit rate mode : Variable
      Bit rate : 93.6 Kbps
      Channel(s) : 2 channels
      Sampling rate : 48.0 KHz
      Resolution : 16 bits
      Stream size : 63.4 MiB (9%)
